<mxfile host="app.diagrams.net" agent="Mozilla/5.0 (X11; Linux x86_64) AppleWebKit/537.36 (KHTML, like Gecko) Chrome/131.0.0.0 Safari/537.36" version="24.8.9">
  <diagram name="Page-1" id="gdSSXVyvYKYni4nwoQx8">
    <mxGraphModel dx="1619" dy="985" grid="1" gridSize="10" guides="1" tooltips="1" connect="1" arrows="1" fold="1" page="1" pageScale="1" pageWidth="827" pageHeight="1169" math="0" shadow="0">
      <root>
        <mxCell id="0" />
        <mxCell id="1" parent="0" />
        <mxCell id="mxZ-tprnyePKSeEEDV7U-1" value="" style="rounded=1;whiteSpace=wrap;html=1;fillColor=#f0f6ff;strokeColor=#6c8ebf;" vertex="1" parent="1">
          <mxGeometry x="290" y="360" width="210" height="80" as="geometry" />
        </mxCell>
        <mxCell id="mxZ-tprnyePKSeEEDV7U-2" value="&lt;font style=&quot;font-size: 18px;&quot;&gt;Client&lt;/font&gt;" style="rounded=1;whiteSpace=wrap;html=1;fillColor=#dae8fc;strokeColor=#6c8ebf;" vertex="1" parent="1">
          <mxGeometry x="290" y="270" width="210" height="50" as="geometry" />
        </mxCell>
        <mxCell id="mxZ-tprnyePKSeEEDV7U-3" value="&lt;font style=&quot;font-size: 18px;&quot;&gt;Master&lt;/font&gt;" style="text;html=1;align=center;verticalAlign=middle;whiteSpace=wrap;rounded=0;" vertex="1" parent="1">
          <mxGeometry x="367.5" y="410" width="60" height="30" as="geometry" />
        </mxCell>
        <mxCell id="mxZ-tprnyePKSeEEDV7U-4" value="&lt;font style=&quot;font-size: 16px;&quot;&gt;Metadata&lt;/font&gt;" style="rounded=1;whiteSpace=wrap;html=1;" vertex="1" parent="1">
          <mxGeometry x="315" y="373" width="165" height="30" as="geometry" />
        </mxCell>
        <mxCell id="mxZ-tprnyePKSeEEDV7U-5" value="&lt;font style=&quot;font-size: 18px;&quot;&gt;Primary&lt;/font&gt;" style="rounded=1;whiteSpace=wrap;html=1;fillColor=#f0f6ff;strokeColor=#6c8ebf;" vertex="1" parent="1">
          <mxGeometry x="583" y="270" width="230" height="40" as="geometry" />
        </mxCell>
        <mxCell id="mxZ-tprnyePKSeEEDV7U-6" value="&lt;font style=&quot;font-size: 18px;&quot;&gt;Secondary&lt;/font&gt;" style="rounded=1;whiteSpace=wrap;html=1;fillColor=#f0f6ff;strokeColor=#6c8ebf;" vertex="1" parent="1">
          <mxGeometry x="583" y="400" width="230" height="40" as="geometry" />
        </mxCell>
        <mxCell id="mxZ-tprnyePKSeEEDV7U-7" value="&lt;font style=&quot;font-size: 18px;&quot;&gt;Secondary&lt;/font&gt;" style="rounded=1;whiteSpace=wrap;html=1;fillColor=#f0f6ff;strokeColor=#6c8ebf;" vertex="1" parent="1">
          <mxGeometry x="583" y="336" width="230" height="40" as="geometry" />
        </mxCell>
        <mxCell id="mxZ-tprnyePKSeEEDV7U-9" value="" style="endArrow=classic;html=1;rounded=0;exitX=0.75;exitY=0;exitDx=0;exitDy=0;entryX=0.75;entryY=1;entryDx=0;entryDy=0;startArrow=block;startFill=1;" edge="1" parent="1">
          <mxGeometry width="50" height="50" relative="1" as="geometry">
            <mxPoint x="400.5" y="360" as="sourcePoint" />
            <mxPoint x="400.5" y="320" as="targetPoint" />
          </mxGeometry>
        </mxCell>
        <mxCell id="mxZ-tprnyePKSeEEDV7U-10" value="" style="endArrow=classic;html=1;rounded=0;exitX=1;exitY=0.5;exitDx=0;exitDy=0;entryX=0;entryY=0.25;entryDx=0;entryDy=0;" edge="1" parent="1" target="mxZ-tprnyePKSeEEDV7U-5">
          <mxGeometry width="50" height="50" relative="1" as="geometry">
            <mxPoint x="500" y="280" as="sourcePoint" />
            <mxPoint x="580.4599999999998" y="280.36" as="targetPoint" />
          </mxGeometry>
        </mxCell>
        <mxCell id="mxZ-tprnyePKSeEEDV7U-12" value="" style="endArrow=classic;html=1;rounded=0;exitX=1;exitY=0.25;exitDx=0;exitDy=0;entryX=1;entryY=0.5;entryDx=0;entryDy=0;" edge="1" parent="1" source="mxZ-tprnyePKSeEEDV7U-5" target="mxZ-tprnyePKSeEEDV7U-7">
          <mxGeometry width="50" height="50" relative="1" as="geometry">
            <mxPoint x="663" y="360" as="sourcePoint" />
            <mxPoint x="713" y="310" as="targetPoint" />
            <Array as="points">
              <mxPoint x="833" y="280" />
              <mxPoint x="833" y="356" />
            </Array>
          </mxGeometry>
        </mxCell>
        <mxCell id="mxZ-tprnyePKSeEEDV7U-13" value="" style="endArrow=classic;html=1;rounded=0;entryX=1;entryY=0.5;entryDx=0;entryDy=0;" edge="1" parent="1" target="mxZ-tprnyePKSeEEDV7U-6">
          <mxGeometry width="50" height="50" relative="1" as="geometry">
            <mxPoint x="833" y="350" as="sourcePoint" />
            <mxPoint x="713" y="310" as="targetPoint" />
            <Array as="points">
              <mxPoint x="833" y="420" />
            </Array>
          </mxGeometry>
        </mxCell>
        <mxCell id="mxZ-tprnyePKSeEEDV7U-14" value="" style="endArrow=classic;html=1;rounded=0;exitX=0;exitY=0.5;exitDx=0;exitDy=0;entryX=0.25;entryY=1;entryDx=0;entryDy=0;" edge="1" parent="1" source="mxZ-tprnyePKSeEEDV7U-6" target="mxZ-tprnyePKSeEEDV7U-5">
          <mxGeometry width="50" height="50" relative="1" as="geometry">
            <mxPoint x="533" y="440" as="sourcePoint" />
            <mxPoint x="583" y="390" as="targetPoint" />
            <Array as="points">
              <mxPoint x="573" y="420" />
              <mxPoint x="573" y="320" />
              <mxPoint x="613" y="320" />
            </Array>
          </mxGeometry>
        </mxCell>
        <mxCell id="mxZ-tprnyePKSeEEDV7U-15" value="" style="endArrow=classic;html=1;rounded=0;exitX=0.75;exitY=0;exitDx=0;exitDy=0;entryX=0.75;entryY=1;entryDx=0;entryDy=0;" edge="1" parent="1" source="mxZ-tprnyePKSeEEDV7U-7" target="mxZ-tprnyePKSeEEDV7U-5">
          <mxGeometry width="50" height="50" relative="1" as="geometry">
            <mxPoint x="753" y="340" as="sourcePoint" />
            <mxPoint x="803" y="290" as="targetPoint" />
          </mxGeometry>
        </mxCell>
        <mxCell id="mxZ-tprnyePKSeEEDV7U-18" value="&lt;font style=&quot;font-size: 15px;&quot;&gt;(1) Append&lt;/font&gt;" style="text;html=1;align=center;verticalAlign=middle;whiteSpace=wrap;rounded=0;" vertex="1" parent="1">
          <mxGeometry x="480" y="250" width="120" height="30" as="geometry" />
        </mxCell>
        <mxCell id="mxZ-tprnyePKSeEEDV7U-23" value="&lt;font style=&quot;font-size: 15px;&quot;&gt;Data Flow&lt;/font&gt;" style="text;html=1;align=center;verticalAlign=middle;whiteSpace=wrap;rounded=0;" vertex="1" parent="1">
          <mxGeometry x="327" y="324" width="70" height="30" as="geometry" />
        </mxCell>
        <mxCell id="mxZ-tprnyePKSeEEDV7U-25" value="&lt;font style=&quot;font-size: 15px;&quot;&gt;(3) Yes&lt;/font&gt;" style="text;html=1;align=center;verticalAlign=middle;whiteSpace=wrap;rounded=0;rotation=0;" vertex="1" parent="1">
          <mxGeometry x="486" y="342" width="120" height="34" as="geometry" />
        </mxCell>
        <mxCell id="mxZ-tprnyePKSeEEDV7U-28" value="&lt;font style=&quot;font-size: 15px;&quot;&gt;(3) Yes&lt;/font&gt;" style="text;html=1;align=center;verticalAlign=middle;whiteSpace=wrap;rounded=0;rotation=0;" vertex="1" parent="1">
          <mxGeometry x="667" y="307" width="120" height="34" as="geometry" />
        </mxCell>
        <mxCell id="mxZ-tprnyePKSeEEDV7U-29" value="&lt;font style=&quot;font-size: 15px;&quot;&gt;(2) Can you append?&lt;/font&gt;" style="text;html=1;align=center;verticalAlign=middle;whiteSpace=wrap;rounded=0;rotation=90;" vertex="1" parent="1">
          <mxGeometry x="756" y="336" width="180" height="30" as="geometry" />
        </mxCell>
        <mxCell id="mxZ-tprnyePKSeEEDV7U-30" value="" style="rounded=1;whiteSpace=wrap;html=1;fillColor=#f0f6ff;strokeColor=#6c8ebf;" vertex="1" parent="1">
          <mxGeometry x="890" y="360" width="210" height="80" as="geometry" />
        </mxCell>
        <mxCell id="mxZ-tprnyePKSeEEDV7U-31" value="&lt;font style=&quot;font-size: 18px;&quot;&gt;Client&lt;/font&gt;" style="rounded=1;whiteSpace=wrap;html=1;fillColor=#dae8fc;strokeColor=#6c8ebf;" vertex="1" parent="1">
          <mxGeometry x="890" y="270" width="210" height="50" as="geometry" />
        </mxCell>
        <mxCell id="mxZ-tprnyePKSeEEDV7U-32" value="&lt;font style=&quot;font-size: 18px;&quot;&gt;Master&lt;/font&gt;" style="text;html=1;align=center;verticalAlign=middle;whiteSpace=wrap;rounded=0;" vertex="1" parent="1">
          <mxGeometry x="967.5" y="410" width="60" height="30" as="geometry" />
        </mxCell>
        <mxCell id="mxZ-tprnyePKSeEEDV7U-33" value="&lt;font style=&quot;font-size: 16px;&quot;&gt;Metadata&lt;/font&gt;" style="rounded=1;whiteSpace=wrap;html=1;" vertex="1" parent="1">
          <mxGeometry x="915" y="373" width="165" height="30" as="geometry" />
        </mxCell>
        <mxCell id="mxZ-tprnyePKSeEEDV7U-34" value="&lt;font style=&quot;font-size: 18px;&quot;&gt;Primary&lt;/font&gt;" style="rounded=1;whiteSpace=wrap;html=1;fillColor=#f0f6ff;strokeColor=#6c8ebf;" vertex="1" parent="1">
          <mxGeometry x="1183" y="270" width="230" height="40" as="geometry" />
        </mxCell>
        <mxCell id="mxZ-tprnyePKSeEEDV7U-35" value="&lt;font style=&quot;font-size: 18px;&quot;&gt;Secondary&lt;/font&gt;" style="rounded=1;whiteSpace=wrap;html=1;fillColor=#f0f6ff;strokeColor=#6c8ebf;" vertex="1" parent="1">
          <mxGeometry x="1183" y="400" width="230" height="40" as="geometry" />
        </mxCell>
        <mxCell id="mxZ-tprnyePKSeEEDV7U-36" value="&lt;font style=&quot;font-size: 18px;&quot;&gt;Secondary&lt;/font&gt;" style="rounded=1;whiteSpace=wrap;html=1;fillColor=#f0f6ff;strokeColor=#6c8ebf;" vertex="1" parent="1">
          <mxGeometry x="1183" y="336" width="230" height="40" as="geometry" />
        </mxCell>
        <mxCell id="mxZ-tprnyePKSeEEDV7U-37" value="" style="endArrow=classic;html=1;rounded=0;exitX=0.75;exitY=0;exitDx=0;exitDy=0;entryX=0.75;entryY=1;entryDx=0;entryDy=0;startArrow=block;startFill=1;" edge="1" parent="1">
          <mxGeometry width="50" height="50" relative="1" as="geometry">
            <mxPoint x="1000.5" y="360" as="sourcePoint" />
            <mxPoint x="1000.5" y="320" as="targetPoint" />
          </mxGeometry>
        </mxCell>
        <mxCell id="mxZ-tprnyePKSeEEDV7U-38" value="" style="endArrow=classic;html=1;rounded=0;exitX=1;exitY=0.5;exitDx=0;exitDy=0;entryX=0;entryY=0.25;entryDx=0;entryDy=0;" edge="1" parent="1">
          <mxGeometry width="50" height="50" relative="1" as="geometry">
            <mxPoint x="1183" y="297" as="sourcePoint" />
            <mxPoint x="1100" y="297" as="targetPoint" />
          </mxGeometry>
        </mxCell>
        <mxCell id="mxZ-tprnyePKSeEEDV7U-39" value="" style="endArrow=classic;html=1;rounded=0;exitX=1;exitY=0.25;exitDx=0;exitDy=0;entryX=1;entryY=0.5;entryDx=0;entryDy=0;" edge="1" parent="1" source="mxZ-tprnyePKSeEEDV7U-34" target="mxZ-tprnyePKSeEEDV7U-36">
          <mxGeometry width="50" height="50" relative="1" as="geometry">
            <mxPoint x="1263" y="360" as="sourcePoint" />
            <mxPoint x="1313" y="310" as="targetPoint" />
            <Array as="points">
              <mxPoint x="1433" y="280" />
              <mxPoint x="1433" y="356" />
            </Array>
          </mxGeometry>
        </mxCell>
        <mxCell id="mxZ-tprnyePKSeEEDV7U-40" value="" style="endArrow=classic;html=1;rounded=0;entryX=1;entryY=0.5;entryDx=0;entryDy=0;" edge="1" parent="1" target="mxZ-tprnyePKSeEEDV7U-35">
          <mxGeometry width="50" height="50" relative="1" as="geometry">
            <mxPoint x="1433" y="350" as="sourcePoint" />
            <mxPoint x="1313" y="310" as="targetPoint" />
            <Array as="points">
              <mxPoint x="1433" y="420" />
            </Array>
          </mxGeometry>
        </mxCell>
        <mxCell id="mxZ-tprnyePKSeEEDV7U-41" value="" style="endArrow=classic;html=1;rounded=0;exitX=0;exitY=0.5;exitDx=0;exitDy=0;entryX=0.25;entryY=1;entryDx=0;entryDy=0;" edge="1" parent="1" source="mxZ-tprnyePKSeEEDV7U-35" target="mxZ-tprnyePKSeEEDV7U-34">
          <mxGeometry width="50" height="50" relative="1" as="geometry">
            <mxPoint x="1133" y="440" as="sourcePoint" />
            <mxPoint x="1183" y="390" as="targetPoint" />
            <Array as="points">
              <mxPoint x="1173" y="420" />
              <mxPoint x="1173" y="320" />
              <mxPoint x="1213" y="320" />
            </Array>
          </mxGeometry>
        </mxCell>
        <mxCell id="mxZ-tprnyePKSeEEDV7U-42" value="" style="endArrow=classic;html=1;rounded=0;exitX=0.75;exitY=0;exitDx=0;exitDy=0;entryX=0.75;entryY=1;entryDx=0;entryDy=0;" edge="1" parent="1" source="mxZ-tprnyePKSeEEDV7U-36" target="mxZ-tprnyePKSeEEDV7U-34">
          <mxGeometry width="50" height="50" relative="1" as="geometry">
            <mxPoint x="1353" y="340" as="sourcePoint" />
            <mxPoint x="1403" y="290" as="targetPoint" />
          </mxGeometry>
        </mxCell>
        <mxCell id="mxZ-tprnyePKSeEEDV7U-43" value="&lt;font style=&quot;font-size: 15px;&quot;&gt;(6) Ack&lt;/font&gt;" style="text;html=1;align=center;verticalAlign=middle;whiteSpace=wrap;rounded=0;" vertex="1" parent="1">
          <mxGeometry x="1080" y="270" width="120" height="30" as="geometry" />
        </mxCell>
        <mxCell id="mxZ-tprnyePKSeEEDV7U-44" value="&lt;font style=&quot;font-size: 15px;&quot;&gt;Data Flow&lt;/font&gt;" style="text;html=1;align=center;verticalAlign=middle;whiteSpace=wrap;rounded=0;" vertex="1" parent="1">
          <mxGeometry x="927" y="324" width="70" height="30" as="geometry" />
        </mxCell>
        <mxCell id="mxZ-tprnyePKSeEEDV7U-45" value="&lt;font style=&quot;font-size: 15px;&quot;&gt;(5) Done&lt;/font&gt;" style="text;html=1;align=center;verticalAlign=middle;whiteSpace=wrap;rounded=0;rotation=0;" vertex="1" parent="1">
          <mxGeometry x="1082" y="342" width="120" height="34" as="geometry" />
        </mxCell>
        <mxCell id="mxZ-tprnyePKSeEEDV7U-46" value="&lt;font style=&quot;font-size: 15px;&quot;&gt;(5) Done&lt;/font&gt;" style="text;html=1;align=center;verticalAlign=middle;whiteSpace=wrap;rounded=0;rotation=0;" vertex="1" parent="1">
          <mxGeometry x="1262" y="307" width="120" height="34" as="geometry" />
        </mxCell>
        <mxCell id="mxZ-tprnyePKSeEEDV7U-47" value="&lt;font style=&quot;font-size: 15px;&quot;&gt;(4) Do append&lt;/font&gt;" style="text;html=1;align=center;verticalAlign=middle;whiteSpace=wrap;rounded=0;rotation=90;" vertex="1" parent="1">
          <mxGeometry x="1356" y="336" width="180" height="30" as="geometry" />
        </mxCell>
        <mxCell id="mxZ-tprnyePKSeEEDV7U-48" value="&lt;i style=&quot;&quot;&gt;&lt;font style=&quot;font-size: 20px;&quot;&gt;Phase One&lt;/font&gt;&lt;/i&gt;" style="text;html=1;align=center;verticalAlign=middle;whiteSpace=wrap;rounded=0;" vertex="1" parent="1">
          <mxGeometry x="480" y="450" width="120" height="30" as="geometry" />
        </mxCell>
        <mxCell id="mxZ-tprnyePKSeEEDV7U-49" value="&lt;i style=&quot;&quot;&gt;&lt;font style=&quot;font-size: 20px;&quot;&gt;Phase Two&lt;/font&gt;&lt;/i&gt;" style="text;html=1;align=center;verticalAlign=middle;whiteSpace=wrap;rounded=0;" vertex="1" parent="1">
          <mxGeometry x="1082" y="450" width="120" height="30" as="geometry" />
        </mxCell>
        <mxCell id="mxZ-tprnyePKSeEEDV7U-50" value="" style="endArrow=none;dashed=1;html=1;dashPattern=1 3;strokeWidth=2;rounded=0;" edge="1" parent="1">
          <mxGeometry width="50" height="50" relative="1" as="geometry">
            <mxPoint x="872" y="480" as="sourcePoint" />
            <mxPoint x="872" y="240" as="targetPoint" />
          </mxGeometry>
        </mxCell>
      </root>
    </mxGraphModel>
  </diagram>
</mxfile>
